<?xml version="1.0" standalone="no"?>
<!DOCTYPE svg PUBLIC "-//W3C//DTD SVG 20010904//EN"
 "http://www.w3.org/TR/2001/REC-SVG-20010904/DTD/svg10.dtd">
<svg version="1.0" xmlns="http://www.w3.org/2000/svg"
 width="250.000000pt" height="250.000000pt" viewBox="0 0 250.000000 250.000000"
 preserveAspectRatio="xMidYMid meet">
<metadata>
Created by potrace 1.11, written by Peter Selinger 2001-2013
</metadata>
<g transform="translate(0.000000,250.000000) scale(0.100000,-0.100000)"
fill="#000000" stroke="none">
<path d="M1150 2487 c-3 -3 -21 -8 -41 -11 -87 -13 -217 -84 -267 -145 -94
-116 -114 -245 -56 -367 50 -106 180 -206 299 -230 67 -14 86 -16 137 -18 189
-6 378 95 450 242 29 58 33 76 33 147 0 99 -28 166 -100 238 -93 93 -197 136
-350 144 -55 3 -102 3 -105 0z"/>
<path d="M1124 1626 c-271 -62 -418 -297 -320 -511 126 -277 588 -337 816
-106 80 80 104 135 104 241 1 74 -3 92 -28 142 -51 101 -143 177 -267 218 -81
28 -221 35 -305 16z"/>
<path d="M1155 772 c-104 -20 -190 -67 -261 -138 -51 -52 -65 -74 -84 -133
-82 -255 142 -491 464 -489 277 2 495 193 472 416 -24 236 -309 402 -591 344z"/>
</g>
</svg>
